<svg width="1024" height="1024" viewBox="0 0 1024 1024" xmlns="http://www.w3.org/2000/svg">
  <title>Muffin EMU app icon — dark mode</title>
  <defs>
    <linearGradient id="bg" x1="0" y1="0" x2="1" y2="1">
      <stop offset="0" stop-color="#241611"/>
      <stop offset="1" stop-color="#100A07"/>
    </linearGradient>
    <linearGradient id="muffinTop" x1="0" y1="0" x2="0" y2="1">
      <stop offset="0" stop-color="#EAB06A"/>
      <stop offset="1" stop-color="#B36F35"/>
    </linearGradient>
    <radialGradient id="muffinSheen" cx="0.35" cy="0.22" r="0.65">
      <stop offset="0" stop-color="#FBDCA6" stop-opacity="0.85"/>
      <stop offset="1" stop-color="#FBDCA6" stop-opacity="0"/>
    </radialGradient>
    <radialGradient id="glow" cx="0.5" cy="0.55" r="0.5">
      <stop offset="0" stop-color="#F6A94F" stop-opacity="0.20"/>
      <stop offset="1" stop-color="#F6A94F" stop-opacity="0"/>
    </radialGradient>
    <radialGradient id="floorGlow" cx="0.5" cy="0.5" r="0.5">
      <stop offset="0" stop-color="#F6A94F" stop-opacity="0.18"/>
      <stop offset="1" stop-color="#F6A94F" stop-opacity="0"/>
    </radialGradient>
    <filter id="softShadow" x="-30%" y="-30%" width="160%" height="160%">
      <feDropShadow dx="0" dy="10" stdDeviation="12" flood-color="#000000" flood-opacity="0.5"/>
    </filter>
  </defs>

  <rect width="1024" height="1024" fill="url(#bg)"/>
  <circle cx="512" cy="540" r="500" fill="url(#glow)"/>
  <ellipse cx="512" cy="905" rx="260" ry="40" fill="url(#floorGlow)"/>

  <g filter="url(#softShadow)">
    <polygon points="300,650 353,650 428,900 400,895" fill="#FDF6EC"/>
    <polygon points="353,650 406,650 456,904 428,900" fill="#F0DFC3"/>
    <polygon points="406,650 459,650 484,906 456,904" fill="#FDF6EC"/>
    <polygon points="459,650 512,650 512,907 484,906" fill="#F0DFC3"/>
    <polygon points="512,650 565,650 540,906 512,907" fill="#FDF6EC"/>
    <polygon points="565,650 618,650 568,904 540,906" fill="#F0DFC3"/>
    <polygon points="618,650 671,650 596,900 568,904" fill="#FDF6EC"/>
    <polygon points="671,650 724,650 624,895 596,900" fill="#F0DFC3"/>
  </g>

  <path d="M300,650
           C265,645 225,630 232,600
           C238,565 240,530 255,500
           C275,460 305,415 340,380
           C370,350 400,330 430,320
           C455,312 485,300 512,295
           C539,300 569,312 594,320
           C624,330 654,350 684,380
           C719,415 749,460 769,500
           C784,530 786,565 792,600
           C799,630 759,645 724,650
           C660,660 380,660 300,650 Z"
        fill="url(#muffinTop)"/>
  <path d="M300,650
           C265,645 225,630 232,600
           C238,565 240,530 255,500
           C275,460 305,415 340,380
           C370,350 400,330 430,320
           C455,312 485,300 512,295
           C539,300 569,312 594,320
           C624,330 654,350 684,380
           C719,415 749,460 769,500
           C784,530 786,565 792,600
           C799,630 759,645 724,650
           C660,660 380,660 300,650 Z"
        fill="url(#muffinSheen)"/>

  <g stroke="#7A4A22" stroke-width="6" stroke-linecap="round" fill="none" opacity="0.6">
    <path d="M432,338 Q460,398 442,456"/>
    <path d="M560,333 Q546,398 580,464"/>
    <path d="M503,308 Q513,346 507,392"/>
  </g>

  <g fill="#5B4A8A">
    <circle cx="392" cy="418" r="29"/>
    <circle cx="466" cy="368" r="23"/>
    <circle cx="646" cy="430" r="22"/>
    <circle cx="695" cy="480" r="18"/>
  </g>
  <rect x="600" y="392" width="34" height="34" fill="#8B7CFF"/>

  <g>
    <ellipse cx="407" cy="538" rx="26" ry="15" fill="#F2A6A0" opacity="0.35"/>
    <ellipse cx="617" cy="538" rx="26" ry="15" fill="#F2A6A0" opacity="0.35"/>
    <ellipse cx="460" cy="502" rx="15" ry="19" fill="#1A0F08"/>
    <ellipse cx="564" cy="502" rx="15" ry="19" fill="#1A0F08"/>
    <circle cx="455" cy="495" r="5" fill="#FFFFFF"/>
    <circle cx="559" cy="495" r="5" fill="#FFFFFF"/>
    <path d="M480,546 Q512,572 544,546" stroke="#5C2E10" stroke-width="9" stroke-linecap="round" fill="none"/>
  </g>

  <g fill="#FFF3DD" opacity="0.95">
    <path d="M772,240 L782,268 L810,278 L782,288 L772,316 L762,288 L734,278 L762,268 Z"/>
    <circle cx="252" cy="330" r="7"/>
    <circle cx="800" cy="470" r="5"/>
  </g>
</svg>
