<svg width="1024" height="1024" viewBox="0 0 1024 1024" xmlns="http://www.w3.org/2000/svg">
  <title>Muffin EMU — Rainbow Pride special edition</title>
  <defs>
    <linearGradient id="bg" x1="0" y1="0" x2="1" y2="1">
      <stop offset="0" stop-color="#FF5A5A"/>
      <stop offset="0.2" stop-color="#FF9E3D"/>
      <stop offset="0.4" stop-color="#FFE24D"/>
      <stop offset="0.6" stop-color="#4DE07A"/>
      <stop offset="0.8" stop-color="#4D9EFF"/>
      <stop offset="1" stop-color="#B24DFF"/>
    </linearGradient>
    <linearGradient id="dome" x1="0" y1="0" x2="0" y2="1">
      <stop offset="0" stop-color="#FFF6E9"/>
      <stop offset="1" stop-color="#F2DFC0"/>
    </linearGradient>
    <radialGradient id="sheen" cx="0.35" cy="0.22" r="0.65">
      <stop offset="0" stop-color="#FFFFFF" stop-opacity="0.8"/>
      <stop offset="1" stop-color="#FFFFFF" stop-opacity="0"/>
    </radialGradient>
    <radialGradient id="glow" cx="0.5" cy="0.5" r="0.5">
      <stop offset="0" stop-color="#FFFFFF" stop-opacity="0.16"/>
      <stop offset="1" stop-color="#FFFFFF" stop-opacity="0"/>
    </radialGradient>
    <filter id="s" x="-30%" y="-30%" width="160%" height="160%">
      <feDropShadow dx="0" dy="12" stdDeviation="14" flood-color="#3A1A5C" flood-opacity="0.22"/>
    </filter>
  </defs>
  <rect width="1024" height="1024" fill="url(#bg)"/>
  <circle cx="512" cy="520" r="480" fill="url(#glow)"/>
  <ellipse cx="512" cy="905" rx="235" ry="32" fill="#3A1A5C" opacity="0.18"/>
  <g filter="url(#s)">
    <polygon points="300,650 353,650 428,900 400,895" fill="#FFFDF5"/>
    <polygon points="353,650 406,650 456,904 428,900" fill="#F2E9D8"/>
    <polygon points="406,650 459,650 484,906 456,904" fill="#FFFDF5"/>
    <polygon points="459,650 512,650 512,907 484,906" fill="#F2E9D8"/>
    <polygon points="512,650 565,650 540,906 512,907" fill="#FFFDF5"/>
    <polygon points="565,650 618,650 568,904 540,906" fill="#F2E9D8"/>
    <polygon points="618,650 671,650 596,900 568,904" fill="#FFFDF5"/>
    <polygon points="671,650 724,650 624,895 596,900" fill="#F2E9D8"/>
  </g>
  <path d="M300,650 C265,645 225,630 232,600 C238,565 240,530 255,500 C275,460 305,415 340,380 C370,350 400,330 430,320 C455,312 485,300 512,295 C539,300 569,312 594,320 C624,330 654,350 684,380 C719,415 749,460 769,500 C784,530 786,565 792,600 C799,630 759,645 724,650 C660,660 380,660 300,650 Z" fill="url(#dome)"/>
  <path d="M300,650 C265,645 225,630 232,600 C238,565 240,530 255,500 C275,460 305,415 340,380 C370,350 400,330 430,320 C455,312 485,300 512,295 C539,300 569,312 594,320 C624,330 654,350 684,380 C719,415 749,460 769,500 C784,530 786,565 792,600 C799,630 759,645 724,650 C660,660 380,660 300,650 Z" fill="url(#sheen)"/>
  <!-- rainbow sprinkles -->
  <g>
    <rect x="-15" y="-5.5" width="30" height="11" rx="5" fill="#FF5A5A" transform="translate(370,440) rotate(-20)"/>
    <rect x="-14" y="-5" width="28" height="10" rx="5" fill="#FF9E3D" transform="translate(420,390) rotate(15)"/>
    <rect x="-15" y="-5.5" width="30" height="11" rx="5" fill="#FFE24D" transform="translate(512,350) rotate(0)"/>
    <rect x="-14" y="-5" width="28" height="10" rx="5" fill="#4DE07A" transform="translate(605,390) rotate(-15)"/>
    <rect x="-15" y="-5.5" width="30" height="11" rx="5" fill="#4D9EFF" transform="translate(650,440) rotate(20)"/>
    <rect x="-14" y="-5" width="28" height="10" rx="5" fill="#B24DFF" transform="translate(680,485) rotate(-25)"/>
    <rect x="-13" y="-5" width="26" height="10" rx="5" fill="#FF5A5A" transform="translate(440,470) rotate(30)"/>
  </g>
  <g>
    <ellipse cx="407" cy="538" rx="26" ry="15" fill="#FF6FA5" opacity="0.35"/>
    <ellipse cx="617" cy="538" rx="26" ry="15" fill="#FF6FA5" opacity="0.35"/>
    <ellipse cx="460" cy="502" rx="15" ry="19" fill="#2E1B10"/>
    <ellipse cx="564" cy="502" rx="15" ry="19" fill="#2E1B10"/>
    <circle cx="455" cy="495" r="5" fill="#FFFFFF"/>
    <circle cx="559" cy="495" r="5" fill="#FFFFFF"/>
    <path d="M480,546 Q512,572 544,546" stroke="#5C2E10" stroke-width="9" stroke-linecap="round" fill="none"/>
  </g>
  <g fill="#FFFFFF" opacity="0.9">
    <path d="M772,240 L782,268 L810,278 L782,288 L772,316 L762,288 L734,278 L762,268 Z"/>
    <circle cx="252" cy="330" r="7"/>
  </g>
</svg>
